<?xml version="1.0" encoding="UTF-8" standalone="no"?>
<!-- Created with Inkscape (http://www.inkscape.org/) -->

<svg
   version="1.1"
   id="svg1"
   width="500"
   height="500"
   viewBox="0 0 500 500"
   xmlns="http://www.w3.org/2000/svg"
   xmlns:svg="http://www.w3.org/2000/svg">
  <defs
     id="defs1">
    <linearGradient
       id="swatch1372">
      <stop
         style="stop-color:#000000;stop-opacity:1;"
         offset="0"
         id="stop1372" />
    </linearGradient>
  </defs>
  <path
     d="M 344.93555,70.234375 C 315.50095,70.499773 315.4996,70.5 305.42773,90 c -10.25485,19.85427 -18.83484,34.44921 -24.99804,42.52344 -3.14818,4.12434 -4.08881,6.48494 -3.01367,7.56054 1.44035,1.44098 55.86896,-0.0331 57.55468,-1.55859 9.24668,-8.36813 42.97167,-64.983401 40.30078,-67.654296 -0.50821,-0.508212 -13.76293,-0.78615 -30.33593,-0.636719 z m -147.03907,0.201172 c -2.04689,-1.265049 -53.2755,-0.438476 -54.10937,0.873047 -1.46937,2.311067 -0.94289,177.316636 0.53711,178.544926 0.99669,0.82718 6.0871,-0.6241 20.60156,-5.87696 66.22071,-23.96562 112.1603,-32.59528 129.0957,-24.24804 8.64391,4.26047 7.97852,-4.75168 7.97852,108.00976 0,54.96097 0.30799,100.23573 0.68359,100.61133 0.3756,0.3756 12.4131,0.56245 26.75,0.41601 26.06709,-0.26625 26.06554,-0.26556 26.32032,-101.68164 0.28668,-114.11055 0.4022,-111.91633 -6.64063,-126.46679 C 332.65469,166.61378 278.3041,159.68947 209.85156,182.875 197.95552,186.9043 199,192.24529 199,127.35938 199,87.422912 198.68018,70.919897 197.89648,70.435547 Z M 145.0918,319.44336 c -1.20867,0.747 -1.62672,105.68968 -0.42578,106.89062 0.36666,0.36667 0.91008,0.66602 1.20703,0.66602 0.29695,0 12.3726,-11.80092 26.83398,-26.22461 C 187.16842,386.35171 199,373.85263 199,373 c 0,-2.1755 -52.55821,-54.39098 -53.9082,-53.55664 z"
     style="fill:#ffffff"
     id="path1377" />
  <path
     d="M 89.539062,3.0449219 C 72.490822,6.3030052 58.769813,19.208366 52.373047,38 c -3.312513,9.731095 -2.849733,415.80614 0.484375,425 7.022542,19.36479 20.030775,30.78423 38.669922,33.94531 13.028236,2.2095 320.645706,0.6793 326.673826,-1.625 16.48798,-6.30268 27.17468,-18.04568 32.22266,-35.41015 3.61548,-12.43681 1.68054,-418.014295 -2.03516,-426.585941 C 442.41798,19.550586 432.92957,9.9444247 420.22461,4.8125 413.59594,2.1349803 102.98772,0.474753 89.539062,3.0449219 Z M 344.93555,70.234375 c 16.573,-0.149431 29.82772,0.128507 30.33593,0.636719 2.67089,2.670895 -31.0541,59.286166 -40.30078,67.654296 -1.68572,1.52553 -56.11433,2.99957 -57.55468,1.55859 -1.07514,-1.0756 -0.13451,-3.4362 3.01367,-7.56054 C 286.59289,124.44921 295.17288,109.85427 305.42773,90 315.4996,70.5 315.50095,70.499773 344.93555,70.234375 Z M 197.89648,70.435547 C 198.68018,70.919897 199,87.422912 199,127.35938 c 0,64.88591 -1.04448,59.54492 10.85156,55.51562 68.45254,-23.18553 122.80313,-16.26122 139.26172,17.74219 7.04283,14.55046 6.92731,12.35624 6.64063,126.46679 -0.25478,101.41608 -0.25323,101.41539 -26.32032,101.68164 -14.3369,0.14644 -26.3744,-0.0404 -26.75,-0.41601 C 302.30799,427.97401 302,382.69925 302,327.73828 c 0,-112.76144 0.66539,-103.74929 -7.97852,-108.00976 -16.9354,-8.34724 -62.87499,0.28242 -129.0957,24.24804 -14.51446,5.25286 -19.60487,6.70414 -20.60156,5.87696 -1.48,-1.22829 -2.00648,-176.233859 -0.53711,-178.544926 0.83387,-1.311523 52.06248,-2.138096 54.10937,-0.873047 z M 145.0918,319.44336 C 146.44179,318.60902 199,370.8245 199,373 c 0,0.85263 -11.83158,13.35171 -26.29297,27.77539 C 158.24565,415.19908 146.17,427 145.87305,427 c -0.29695,0 -0.84037,-0.29935 -1.20703,-0.66602 -1.20094,-1.20094 -0.78289,-106.14362 0.42578,-106.89062 z"
     style="fill:#6661a5"
     id="path1376" />
</svg>
